<mxfile host="app.diagrams.net" modified="2022-12-29T01:26:33.268Z" agent="5.0 (Windows NT 10.0; Win64; x64) AppleWebKit/537.36 (KHTML, like Gecko) Chrome/108.0.0.0 Safari/537.36" etag="Uykf8LCvrv4wCxwdSham" version="20.7.4" type="github" pages="2">
  <diagram id="C5RBs43oDa-KdzZeNtuy" name="데이터베이스 테이블">
    <mxGraphModel dx="1659" dy="925" grid="1" gridSize="10" guides="1" tooltips="1" connect="1" arrows="1" fold="1" page="1" pageScale="1" pageWidth="827" pageHeight="1169" math="0" shadow="0">
      <root>
        <mxCell id="WIyWlLk6GJQsqaUBKTNV-0" />
        <mxCell id="WIyWlLk6GJQsqaUBKTNV-1" parent="WIyWlLk6GJQsqaUBKTNV-0" />
        <mxCell id="zkfFHV4jXpPFQw0GAbJ--0" value="User" style="swimlane;fontStyle=1;align=center;verticalAlign=top;childLayout=stackLayout;horizontal=1;startSize=26;horizontalStack=0;resizeParent=1;resizeLast=0;collapsible=1;marginBottom=0;rounded=0;shadow=0;strokeWidth=1;" parent="WIyWlLk6GJQsqaUBKTNV-1" vertex="1">
          <mxGeometry x="130" y="40" width="320" height="1302" as="geometry">
            <mxRectangle x="230" y="140" width="160" height="26" as="alternateBounds" />
          </mxGeometry>
        </mxCell>
        <mxCell id="zkfFHV4jXpPFQw0GAbJ--1" value="id&#xa;" style="text;align=left;verticalAlign=top;spacingLeft=4;spacingRight=4;overflow=hidden;rotatable=0;points=[[0,0.5],[1,0.5]];portConstraint=eastwest;" parent="zkfFHV4jXpPFQw0GAbJ--0" vertex="1">
          <mxGeometry y="26" width="320" height="26" as="geometry" />
        </mxCell>
        <mxCell id="zkfFHV4jXpPFQw0GAbJ--2" value="isNew" style="text;align=left;verticalAlign=top;spacingLeft=4;spacingRight=4;overflow=hidden;rotatable=0;points=[[0,0.5],[1,0.5]];portConstraint=eastwest;rounded=0;shadow=0;html=0;" parent="zkfFHV4jXpPFQw0GAbJ--0" vertex="1">
          <mxGeometry y="52" width="320" height="26" as="geometry" />
        </mxCell>
        <mxCell id="zkfFHV4jXpPFQw0GAbJ--3" value="userName" style="text;align=left;verticalAlign=top;spacingLeft=4;spacingRight=4;overflow=hidden;rotatable=0;points=[[0,0.5],[1,0.5]];portConstraint=eastwest;rounded=0;shadow=0;html=0;" parent="zkfFHV4jXpPFQw0GAbJ--0" vertex="1">
          <mxGeometry y="78" width="320" height="26" as="geometry" />
        </mxCell>
        <mxCell id="zkfFHV4jXpPFQw0GAbJ--5" value="phoneNo" style="text;align=left;verticalAlign=top;spacingLeft=4;spacingRight=4;overflow=hidden;rotatable=0;points=[[0,0.5],[1,0.5]];portConstraint=eastwest;" parent="zkfFHV4jXpPFQw0GAbJ--0" vertex="1">
          <mxGeometry y="104" width="320" height="26" as="geometry" />
        </mxCell>
        <mxCell id="142aJgIeLSIYo50rHT2k-1" value="email" style="text;align=left;verticalAlign=top;spacingLeft=4;spacingRight=4;overflow=hidden;rotatable=0;points=[[0,0.5],[1,0.5]];portConstraint=eastwest;rounded=0;shadow=0;html=0;" vertex="1" parent="zkfFHV4jXpPFQw0GAbJ--0">
          <mxGeometry y="130" width="320" height="26" as="geometry" />
        </mxCell>
        <mxCell id="142aJgIeLSIYo50rHT2k-2" value="recommendCode" style="text;align=left;verticalAlign=top;spacingLeft=4;spacingRight=4;overflow=hidden;rotatable=0;points=[[0,0.5],[1,0.5]];portConstraint=eastwest;rounded=0;shadow=0;html=0;" vertex="1" parent="zkfFHV4jXpPFQw0GAbJ--0">
          <mxGeometry y="156" width="320" height="26" as="geometry" />
        </mxCell>
        <mxCell id="142aJgIeLSIYo50rHT2k-3" value="connectState" style="text;align=left;verticalAlign=top;spacingLeft=4;spacingRight=4;overflow=hidden;rotatable=0;points=[[0,0.5],[1,0.5]];portConstraint=eastwest;rounded=0;shadow=0;html=0;" vertex="1" parent="zkfFHV4jXpPFQw0GAbJ--0">
          <mxGeometry y="182" width="320" height="26" as="geometry" />
        </mxCell>
        <mxCell id="142aJgIeLSIYo50rHT2k-4" value="createdAt" style="text;align=left;verticalAlign=top;spacingLeft=4;spacingRight=4;overflow=hidden;rotatable=0;points=[[0,0.5],[1,0.5]];portConstraint=eastwest;rounded=0;shadow=0;html=0;" vertex="1" parent="zkfFHV4jXpPFQw0GAbJ--0">
          <mxGeometry y="208" width="320" height="26" as="geometry" />
        </mxCell>
        <mxCell id="142aJgIeLSIYo50rHT2k-5" value="lastLogin" style="text;align=left;verticalAlign=top;spacingLeft=4;spacingRight=4;overflow=hidden;rotatable=0;points=[[0,0.5],[1,0.5]];portConstraint=eastwest;rounded=0;shadow=0;html=0;" vertex="1" parent="zkfFHV4jXpPFQw0GAbJ--0">
          <mxGeometry y="234" width="320" height="26" as="geometry" />
        </mxCell>
        <mxCell id="142aJgIeLSIYo50rHT2k-6" value="lastTrade" style="text;align=left;verticalAlign=top;spacingLeft=4;spacingRight=4;overflow=hidden;rotatable=0;points=[[0,0.5],[1,0.5]];portConstraint=eastwest;rounded=0;shadow=0;html=0;" vertex="1" parent="zkfFHV4jXpPFQw0GAbJ--0">
          <mxGeometry y="260" width="320" height="26" as="geometry" />
        </mxCell>
        <mxCell id="142aJgIeLSIYo50rHT2k-7" value="authority" style="text;align=left;verticalAlign=top;spacingLeft=4;spacingRight=4;overflow=hidden;rotatable=0;points=[[0,0.5],[1,0.5]];portConstraint=eastwest;rounded=0;shadow=0;html=0;" vertex="1" parent="zkfFHV4jXpPFQw0GAbJ--0">
          <mxGeometry y="286" width="320" height="26" as="geometry" />
        </mxCell>
        <mxCell id="142aJgIeLSIYo50rHT2k-8" value="userState" style="text;align=left;verticalAlign=top;spacingLeft=4;spacingRight=4;overflow=hidden;rotatable=0;points=[[0,0.5],[1,0.5]];portConstraint=eastwest;rounded=0;shadow=0;html=0;" vertex="1" parent="zkfFHV4jXpPFQw0GAbJ--0">
          <mxGeometry y="312" width="320" height="28" as="geometry" />
        </mxCell>
        <mxCell id="142aJgIeLSIYo50rHT2k-9" value="userBalance" style="text;align=left;verticalAlign=top;spacingLeft=4;spacingRight=4;overflow=hidden;rotatable=0;points=[[0,0.5],[1,0.5]];portConstraint=eastwest;rounded=0;shadow=0;html=0;" vertex="1" parent="zkfFHV4jXpPFQw0GAbJ--0">
          <mxGeometry y="340" width="320" height="26" as="geometry" />
        </mxCell>
        <mxCell id="142aJgIeLSIYo50rHT2k-10" value="userAccountBank" style="text;align=left;verticalAlign=top;spacingLeft=4;spacingRight=4;overflow=hidden;rotatable=0;points=[[0,0.5],[1,0.5]];portConstraint=eastwest;rounded=0;shadow=0;html=0;" vertex="1" parent="zkfFHV4jXpPFQw0GAbJ--0">
          <mxGeometry y="366" width="320" height="26" as="geometry" />
        </mxCell>
        <mxCell id="142aJgIeLSIYo50rHT2k-11" value="userAccountNo" style="text;align=left;verticalAlign=top;spacingLeft=4;spacingRight=4;overflow=hidden;rotatable=0;points=[[0,0.5],[1,0.5]];portConstraint=eastwest;rounded=0;shadow=0;html=0;" vertex="1" parent="zkfFHV4jXpPFQw0GAbJ--0">
          <mxGeometry y="392" width="320" height="26" as="geometry" />
        </mxCell>
        <mxCell id="142aJgIeLSIYo50rHT2k-12" value="isOverDomestic" style="text;align=left;verticalAlign=top;spacingLeft=4;spacingRight=4;overflow=hidden;rotatable=0;points=[[0,0.5],[1,0.5]];portConstraint=eastwest;rounded=0;shadow=0;html=0;" vertex="1" parent="zkfFHV4jXpPFQw0GAbJ--0">
          <mxGeometry y="418" width="320" height="26" as="geometry" />
        </mxCell>
        <mxCell id="142aJgIeLSIYo50rHT2k-13" value="updatedData_overDomestic" style="text;align=left;verticalAlign=top;spacingLeft=4;spacingRight=4;overflow=hidden;rotatable=0;points=[[0,0.5],[1,0.5]];portConstraint=eastwest;rounded=0;shadow=0;html=0;" vertex="1" parent="zkfFHV4jXpPFQw0GAbJ--0">
          <mxGeometry y="444" width="320" height="26" as="geometry" />
        </mxCell>
        <mxCell id="142aJgIeLSIYo50rHT2k-14" value="isOverOption" style="text;align=left;verticalAlign=top;spacingLeft=4;spacingRight=4;overflow=hidden;rotatable=0;points=[[0,0.5],[1,0.5]];portConstraint=eastwest;rounded=0;shadow=0;html=0;" vertex="1" parent="zkfFHV4jXpPFQw0GAbJ--0">
          <mxGeometry y="470" width="320" height="26" as="geometry" />
        </mxCell>
        <mxCell id="142aJgIeLSIYo50rHT2k-15" value="updatedData_overOption" style="text;align=left;verticalAlign=top;spacingLeft=4;spacingRight=4;overflow=hidden;rotatable=0;points=[[0,0.5],[1,0.5]];portConstraint=eastwest;rounded=0;shadow=0;html=0;" vertex="1" parent="zkfFHV4jXpPFQw0GAbJ--0">
          <mxGeometry y="496" width="320" height="26" as="geometry" />
        </mxCell>
        <mxCell id="142aJgIeLSIYo50rHT2k-16" value="isOverForeign" style="text;align=left;verticalAlign=top;spacingLeft=4;spacingRight=4;overflow=hidden;rotatable=0;points=[[0,0.5],[1,0.5]];portConstraint=eastwest;rounded=0;shadow=0;html=0;" vertex="1" parent="zkfFHV4jXpPFQw0GAbJ--0">
          <mxGeometry y="522" width="320" height="26" as="geometry" />
        </mxCell>
        <mxCell id="142aJgIeLSIYo50rHT2k-17" value="updatedData_overForeign" style="text;align=left;verticalAlign=top;spacingLeft=4;spacingRight=4;overflow=hidden;rotatable=0;points=[[0,0.5],[1,0.5]];portConstraint=eastwest;rounded=0;shadow=0;html=0;" vertex="1" parent="zkfFHV4jXpPFQw0GAbJ--0">
          <mxGeometry y="548" width="320" height="26" as="geometry" />
        </mxCell>
        <mxCell id="142aJgIeLSIYo50rHT2k-18" value="isOverHangSeng" style="text;align=left;verticalAlign=top;spacingLeft=4;spacingRight=4;overflow=hidden;rotatable=0;points=[[0,0.5],[1,0.5]];portConstraint=eastwest;rounded=0;shadow=0;html=0;" vertex="1" parent="zkfFHV4jXpPFQw0GAbJ--0">
          <mxGeometry y="574" width="320" height="26" as="geometry" />
        </mxCell>
        <mxCell id="142aJgIeLSIYo50rHT2k-19" value="connectIP" style="text;align=left;verticalAlign=top;spacingLeft=4;spacingRight=4;overflow=hidden;rotatable=0;points=[[0,0.5],[1,0.5]];portConstraint=eastwest;rounded=0;shadow=0;html=0;" vertex="1" parent="zkfFHV4jXpPFQw0GAbJ--0">
          <mxGeometry y="600" width="320" height="26" as="geometry" />
        </mxCell>
        <mxCell id="142aJgIeLSIYo50rHT2k-20" value="domestic_fee" style="text;align=left;verticalAlign=top;spacingLeft=4;spacingRight=4;overflow=hidden;rotatable=0;points=[[0,0.5],[1,0.5]];portConstraint=eastwest;rounded=0;shadow=0;html=0;" vertex="1" parent="zkfFHV4jXpPFQw0GAbJ--0">
          <mxGeometry y="626" width="320" height="26" as="geometry" />
        </mxCell>
        <mxCell id="142aJgIeLSIYo50rHT2k-21" value="option_fee" style="text;align=left;verticalAlign=top;spacingLeft=4;spacingRight=4;overflow=hidden;rotatable=0;points=[[0,0.5],[1,0.5]];portConstraint=eastwest;rounded=0;shadow=0;html=0;" vertex="1" parent="zkfFHV4jXpPFQw0GAbJ--0">
          <mxGeometry y="652" width="320" height="26" as="geometry" />
        </mxCell>
        <mxCell id="142aJgIeLSIYo50rHT2k-22" value="hangseng_fee" style="text;align=left;verticalAlign=top;spacingLeft=4;spacingRight=4;overflow=hidden;rotatable=0;points=[[0,0.5],[1,0.5]];portConstraint=eastwest;rounded=0;shadow=0;html=0;" vertex="1" parent="zkfFHV4jXpPFQw0GAbJ--0">
          <mxGeometry y="678" width="320" height="26" as="geometry" />
        </mxCell>
        <mxCell id="142aJgIeLSIYo50rHT2k-23" value="mini_foreign_fee" style="text;align=left;verticalAlign=top;spacingLeft=4;spacingRight=4;overflow=hidden;rotatable=0;points=[[0,0.5],[1,0.5]];portConstraint=eastwest;rounded=0;shadow=0;html=0;" vertex="1" parent="zkfFHV4jXpPFQw0GAbJ--0">
          <mxGeometry y="704" width="320" height="26" as="geometry" />
        </mxCell>
        <mxCell id="142aJgIeLSIYo50rHT2k-24" value="mini_hangseng_fee" style="text;align=left;verticalAlign=top;spacingLeft=4;spacingRight=4;overflow=hidden;rotatable=0;points=[[0,0.5],[1,0.5]];portConstraint=eastwest;rounded=0;shadow=0;html=0;" vertex="1" parent="zkfFHV4jXpPFQw0GAbJ--0">
          <mxGeometry y="730" width="320" height="26" as="geometry" />
        </mxCell>
        <mxCell id="142aJgIeLSIYo50rHT2k-25" value="domestic_maxAvailableCount" style="text;align=left;verticalAlign=top;spacingLeft=4;spacingRight=4;overflow=hidden;rotatable=0;points=[[0,0.5],[1,0.5]];portConstraint=eastwest;rounded=0;shadow=0;html=0;" vertex="1" parent="zkfFHV4jXpPFQw0GAbJ--0">
          <mxGeometry y="756" width="320" height="26" as="geometry" />
        </mxCell>
        <mxCell id="142aJgIeLSIYo50rHT2k-26" value="option_maxAvailableCount" style="text;align=left;verticalAlign=top;spacingLeft=4;spacingRight=4;overflow=hidden;rotatable=0;points=[[0,0.5],[1,0.5]];portConstraint=eastwest;rounded=0;shadow=0;html=0;" vertex="1" parent="zkfFHV4jXpPFQw0GAbJ--0">
          <mxGeometry y="782" width="320" height="26" as="geometry" />
        </mxCell>
        <mxCell id="142aJgIeLSIYo50rHT2k-27" value="foreign_maxAvailableCount" style="text;align=left;verticalAlign=top;spacingLeft=4;spacingRight=4;overflow=hidden;rotatable=0;points=[[0,0.5],[1,0.5]];portConstraint=eastwest;rounded=0;shadow=0;html=0;" vertex="1" parent="zkfFHV4jXpPFQw0GAbJ--0">
          <mxGeometry y="808" width="320" height="26" as="geometry" />
        </mxCell>
        <mxCell id="142aJgIeLSIYo50rHT2k-28" value="hangseng_maxAvailableCount" style="text;align=left;verticalAlign=top;spacingLeft=4;spacingRight=4;overflow=hidden;rotatable=0;points=[[0,0.5],[1,0.5]];portConstraint=eastwest;rounded=0;shadow=0;html=0;" vertex="1" parent="zkfFHV4jXpPFQw0GAbJ--0">
          <mxGeometry y="834" width="320" height="26" as="geometry" />
        </mxCell>
        <mxCell id="142aJgIeLSIYo50rHT2k-29" value="mini_foreign_maxAvailableCount" style="text;align=left;verticalAlign=top;spacingLeft=4;spacingRight=4;overflow=hidden;rotatable=0;points=[[0,0.5],[1,0.5]];portConstraint=eastwest;rounded=0;shadow=0;html=0;" vertex="1" parent="zkfFHV4jXpPFQw0GAbJ--0">
          <mxGeometry y="860" width="320" height="26" as="geometry" />
        </mxCell>
        <mxCell id="142aJgIeLSIYo50rHT2k-30" value="mini_hangseng_maxAvailableCount" style="text;align=left;verticalAlign=top;spacingLeft=4;spacingRight=4;overflow=hidden;rotatable=0;points=[[0,0.5],[1,0.5]];portConstraint=eastwest;rounded=0;shadow=0;html=0;" vertex="1" parent="zkfFHV4jXpPFQw0GAbJ--0">
          <mxGeometry y="886" width="320" height="26" as="geometry" />
        </mxCell>
        <mxCell id="142aJgIeLSIYo50rHT2k-32" value="returnType" style="text;align=left;verticalAlign=top;spacingLeft=4;spacingRight=4;overflow=hidden;rotatable=0;points=[[0,0.5],[1,0.5]];portConstraint=eastwest;rounded=0;shadow=0;html=0;" vertex="1" parent="zkfFHV4jXpPFQw0GAbJ--0">
          <mxGeometry y="912" width="320" height="26" as="geometry" />
        </mxCell>
        <mxCell id="142aJgIeLSIYo50rHT2k-33" value="returnValue" style="text;align=left;verticalAlign=top;spacingLeft=4;spacingRight=4;overflow=hidden;rotatable=0;points=[[0,0.5],[1,0.5]];portConstraint=eastwest;rounded=0;shadow=0;html=0;" vertex="1" parent="zkfFHV4jXpPFQw0GAbJ--0">
          <mxGeometry y="938" width="320" height="26" as="geometry" />
        </mxCell>
        <mxCell id="142aJgIeLSIYo50rHT2k-34" value="connectMAC" style="text;align=left;verticalAlign=top;spacingLeft=4;spacingRight=4;overflow=hidden;rotatable=0;points=[[0,0.5],[1,0.5]];portConstraint=eastwest;rounded=0;shadow=0;html=0;" vertex="1" parent="zkfFHV4jXpPFQw0GAbJ--0">
          <mxGeometry y="964" width="320" height="26" as="geometry" />
        </mxCell>
        <mxCell id="142aJgIeLSIYo50rHT2k-35" value="updatedData_overHangseng" style="text;align=left;verticalAlign=top;spacingLeft=4;spacingRight=4;overflow=hidden;rotatable=0;points=[[0,0.5],[1,0.5]];portConstraint=eastwest;rounded=0;shadow=0;html=0;" vertex="1" parent="zkfFHV4jXpPFQw0GAbJ--0">
          <mxGeometry y="990" width="320" height="26" as="geometry" />
        </mxCell>
        <mxCell id="142aJgIeLSIYo50rHT2k-36" value="isOverMiniForeign" style="text;align=left;verticalAlign=top;spacingLeft=4;spacingRight=4;overflow=hidden;rotatable=0;points=[[0,0.5],[1,0.5]];portConstraint=eastwest;rounded=0;shadow=0;html=0;" vertex="1" parent="zkfFHV4jXpPFQw0GAbJ--0">
          <mxGeometry y="1016" width="320" height="26" as="geometry" />
        </mxCell>
        <mxCell id="142aJgIeLSIYo50rHT2k-37" value="updatedData_miniForeign" style="text;align=left;verticalAlign=top;spacingLeft=4;spacingRight=4;overflow=hidden;rotatable=0;points=[[0,0.5],[1,0.5]];portConstraint=eastwest;rounded=0;shadow=0;html=0;" vertex="1" parent="zkfFHV4jXpPFQw0GAbJ--0">
          <mxGeometry y="1042" width="320" height="26" as="geometry" />
        </mxCell>
        <mxCell id="142aJgIeLSIYo50rHT2k-38" value="isOverMiniHangseng" style="text;align=left;verticalAlign=top;spacingLeft=4;spacingRight=4;overflow=hidden;rotatable=0;points=[[0,0.5],[1,0.5]];portConstraint=eastwest;rounded=0;shadow=0;html=0;" vertex="1" parent="zkfFHV4jXpPFQw0GAbJ--0">
          <mxGeometry y="1068" width="320" height="26" as="geometry" />
        </mxCell>
        <mxCell id="142aJgIeLSIYo50rHT2k-39" value="updatedData_miniHangseng" style="text;align=left;verticalAlign=top;spacingLeft=4;spacingRight=4;overflow=hidden;rotatable=0;points=[[0,0.5],[1,0.5]];portConstraint=eastwest;rounded=0;shadow=0;html=0;" vertex="1" parent="zkfFHV4jXpPFQw0GAbJ--0">
          <mxGeometry y="1094" width="320" height="26" as="geometry" />
        </mxCell>
        <mxCell id="142aJgIeLSIYo50rHT2k-40" value="memo" style="text;align=left;verticalAlign=top;spacingLeft=4;spacingRight=4;overflow=hidden;rotatable=0;points=[[0,0.5],[1,0.5]];portConstraint=eastwest;rounded=0;shadow=0;html=0;" vertex="1" parent="zkfFHV4jXpPFQw0GAbJ--0">
          <mxGeometry y="1120" width="320" height="26" as="geometry" />
        </mxCell>
        <mxCell id="142aJgIeLSIYo50rHT2k-31" value="deposit_accountId" style="text;align=left;verticalAlign=top;spacingLeft=4;spacingRight=4;overflow=hidden;rotatable=0;points=[[0,0.5],[1,0.5]];portConstraint=eastwest;rounded=0;shadow=0;html=0;" vertex="1" parent="zkfFHV4jXpPFQw0GAbJ--0">
          <mxGeometry y="1146" width="320" height="26" as="geometry" />
        </mxCell>
        <mxCell id="142aJgIeLSIYo50rHT2k-41" value="connect_serverId" style="text;align=left;verticalAlign=top;spacingLeft=4;spacingRight=4;overflow=hidden;rotatable=0;points=[[0,0.5],[1,0.5]];portConstraint=eastwest;rounded=0;shadow=0;html=0;" vertex="1" parent="zkfFHV4jXpPFQw0GAbJ--0">
          <mxGeometry y="1172" width="320" height="26" as="geometry" />
        </mxCell>
        <mxCell id="142aJgIeLSIYo50rHT2k-42" value="position" style="text;align=left;verticalAlign=top;spacingLeft=4;spacingRight=4;overflow=hidden;rotatable=0;points=[[0,0.5],[1,0.5]];portConstraint=eastwest;rounded=0;shadow=0;html=0;" vertex="1" parent="zkfFHV4jXpPFQw0GAbJ--0">
          <mxGeometry y="1198" width="320" height="26" as="geometry" />
        </mxCell>
        <mxCell id="142aJgIeLSIYo50rHT2k-43" value="request_banking" style="text;align=left;verticalAlign=top;spacingLeft=4;spacingRight=4;overflow=hidden;rotatable=0;points=[[0,0.5],[1,0.5]];portConstraint=eastwest;rounded=0;shadow=0;html=0;" vertex="1" parent="zkfFHV4jXpPFQw0GAbJ--0">
          <mxGeometry y="1224" width="320" height="26" as="geometry" />
        </mxCell>
        <mxCell id="142aJgIeLSIYo50rHT2k-44" value="total_log" style="text;align=left;verticalAlign=top;spacingLeft=4;spacingRight=4;overflow=hidden;rotatable=0;points=[[0,0.5],[1,0.5]];portConstraint=eastwest;rounded=0;shadow=0;html=0;" vertex="1" parent="zkfFHV4jXpPFQw0GAbJ--0">
          <mxGeometry y="1250" width="320" height="26" as="geometry" />
        </mxCell>
        <mxCell id="142aJgIeLSIYo50rHT2k-45" value="user_balance_history" style="text;align=left;verticalAlign=top;spacingLeft=4;spacingRight=4;overflow=hidden;rotatable=0;points=[[0,0.5],[1,0.5]];portConstraint=eastwest;rounded=0;shadow=0;html=0;" vertex="1" parent="zkfFHV4jXpPFQw0GAbJ--0">
          <mxGeometry y="1276" width="320" height="26" as="geometry" />
        </mxCell>
        <mxCell id="851XCtTzTF1RA4zuGcTZ-2" value="Table" style="shape=table;startSize=30;container=1;collapsible=0;childLayout=tableLayout;fontStyle=1;align=center;gradientColor=none;fillStyle=auto;swimlaneFillColor=none;" vertex="1" parent="WIyWlLk6GJQsqaUBKTNV-1">
          <mxGeometry x="650" y="220" width="520" height="610" as="geometry" />
        </mxCell>
        <mxCell id="851XCtTzTF1RA4zuGcTZ-3" value="" style="shape=tableRow;horizontal=0;startSize=0;swimlaneHead=0;swimlaneBody=0;top=0;left=0;bottom=0;right=0;collapsible=0;dropTarget=0;fillColor=none;points=[[0,0.5],[1,0.5]];portConstraint=eastwest;" vertex="1" parent="851XCtTzTF1RA4zuGcTZ-2">
          <mxGeometry y="30" width="520" height="36" as="geometry" />
        </mxCell>
        <mxCell id="851XCtTzTF1RA4zuGcTZ-4" value="" style="shape=partialRectangle;html=1;whiteSpace=wrap;connectable=0;fillColor=none;top=0;left=0;bottom=0;right=0;overflow=hidden;" vertex="1" parent="851XCtTzTF1RA4zuGcTZ-3">
          <mxGeometry width="50" height="36" as="geometry">
            <mxRectangle width="50" height="36" as="alternateBounds" />
          </mxGeometry>
        </mxCell>
        <mxCell id="851XCtTzTF1RA4zuGcTZ-5" value="" style="shape=partialRectangle;html=1;whiteSpace=wrap;connectable=0;fillColor=none;top=0;left=0;bottom=0;right=0;overflow=hidden;" vertex="1" parent="851XCtTzTF1RA4zuGcTZ-3">
          <mxGeometry x="50" width="210" height="36" as="geometry">
            <mxRectangle width="210" height="36" as="alternateBounds" />
          </mxGeometry>
        </mxCell>
        <mxCell id="851XCtTzTF1RA4zuGcTZ-6" value="" style="shape=partialRectangle;html=1;whiteSpace=wrap;connectable=0;fillColor=none;top=0;left=0;bottom=0;right=0;overflow=hidden;" vertex="1" parent="851XCtTzTF1RA4zuGcTZ-3">
          <mxGeometry x="260" width="260" height="36" as="geometry">
            <mxRectangle width="260" height="36" as="alternateBounds" />
          </mxGeometry>
        </mxCell>
        <mxCell id="851XCtTzTF1RA4zuGcTZ-7" value="" style="shape=tableRow;horizontal=0;startSize=0;swimlaneHead=0;swimlaneBody=0;top=0;left=0;bottom=0;right=0;collapsible=0;dropTarget=0;fillColor=none;points=[[0,0.5],[1,0.5]];portConstraint=eastwest;" vertex="1" parent="851XCtTzTF1RA4zuGcTZ-2">
          <mxGeometry y="66" width="520" height="36" as="geometry" />
        </mxCell>
        <mxCell id="851XCtTzTF1RA4zuGcTZ-8" value="" style="shape=partialRectangle;html=1;whiteSpace=wrap;connectable=0;fillColor=none;top=0;left=0;bottom=0;right=0;overflow=hidden;" vertex="1" parent="851XCtTzTF1RA4zuGcTZ-7">
          <mxGeometry width="50" height="36" as="geometry">
            <mxRectangle width="50" height="36" as="alternateBounds" />
          </mxGeometry>
        </mxCell>
        <mxCell id="851XCtTzTF1RA4zuGcTZ-9" value="" style="shape=partialRectangle;html=1;whiteSpace=wrap;connectable=0;fillColor=none;top=0;left=0;bottom=0;right=0;overflow=hidden;" vertex="1" parent="851XCtTzTF1RA4zuGcTZ-7">
          <mxGeometry x="50" width="210" height="36" as="geometry">
            <mxRectangle width="210" height="36" as="alternateBounds" />
          </mxGeometry>
        </mxCell>
        <mxCell id="851XCtTzTF1RA4zuGcTZ-10" value="" style="shape=partialRectangle;html=1;whiteSpace=wrap;connectable=0;fillColor=none;top=0;left=0;bottom=0;right=0;overflow=hidden;" vertex="1" parent="851XCtTzTF1RA4zuGcTZ-7">
          <mxGeometry x="260" width="260" height="36" as="geometry">
            <mxRectangle width="260" height="36" as="alternateBounds" />
          </mxGeometry>
        </mxCell>
        <mxCell id="851XCtTzTF1RA4zuGcTZ-19" value="" style="shape=tableRow;horizontal=0;startSize=0;swimlaneHead=0;swimlaneBody=0;top=0;left=0;bottom=0;right=0;collapsible=0;dropTarget=0;fillColor=none;points=[[0,0.5],[1,0.5]];portConstraint=eastwest;" vertex="1" parent="851XCtTzTF1RA4zuGcTZ-2">
          <mxGeometry y="102" width="520" height="35" as="geometry" />
        </mxCell>
        <mxCell id="851XCtTzTF1RA4zuGcTZ-20" value="" style="shape=partialRectangle;html=1;whiteSpace=wrap;connectable=0;fillColor=none;top=0;left=0;bottom=0;right=0;overflow=hidden;" vertex="1" parent="851XCtTzTF1RA4zuGcTZ-19">
          <mxGeometry width="50" height="35" as="geometry">
            <mxRectangle width="50" height="35" as="alternateBounds" />
          </mxGeometry>
        </mxCell>
        <mxCell id="851XCtTzTF1RA4zuGcTZ-21" value="" style="shape=partialRectangle;html=1;whiteSpace=wrap;connectable=0;fillColor=none;top=0;left=0;bottom=0;right=0;overflow=hidden;" vertex="1" parent="851XCtTzTF1RA4zuGcTZ-19">
          <mxGeometry x="50" width="210" height="35" as="geometry">
            <mxRectangle width="210" height="35" as="alternateBounds" />
          </mxGeometry>
        </mxCell>
        <mxCell id="851XCtTzTF1RA4zuGcTZ-22" value="" style="shape=partialRectangle;html=1;whiteSpace=wrap;connectable=0;fillColor=none;top=0;left=0;bottom=0;right=0;overflow=hidden;" vertex="1" parent="851XCtTzTF1RA4zuGcTZ-19">
          <mxGeometry x="260" width="260" height="35" as="geometry">
            <mxRectangle width="260" height="35" as="alternateBounds" />
          </mxGeometry>
        </mxCell>
        <mxCell id="851XCtTzTF1RA4zuGcTZ-23" value="" style="shape=tableRow;horizontal=0;startSize=0;swimlaneHead=0;swimlaneBody=0;top=0;left=0;bottom=0;right=0;collapsible=0;dropTarget=0;fillColor=none;points=[[0,0.5],[1,0.5]];portConstraint=eastwest;" vertex="1" parent="851XCtTzTF1RA4zuGcTZ-2">
          <mxGeometry y="137" width="520" height="37" as="geometry" />
        </mxCell>
        <mxCell id="851XCtTzTF1RA4zuGcTZ-24" value="" style="shape=partialRectangle;html=1;whiteSpace=wrap;connectable=0;fillColor=none;top=0;left=0;bottom=0;right=0;overflow=hidden;" vertex="1" parent="851XCtTzTF1RA4zuGcTZ-23">
          <mxGeometry width="50" height="37" as="geometry">
            <mxRectangle width="50" height="37" as="alternateBounds" />
          </mxGeometry>
        </mxCell>
        <mxCell id="851XCtTzTF1RA4zuGcTZ-25" value="" style="shape=partialRectangle;html=1;whiteSpace=wrap;connectable=0;fillColor=none;top=0;left=0;bottom=0;right=0;overflow=hidden;" vertex="1" parent="851XCtTzTF1RA4zuGcTZ-23">
          <mxGeometry x="50" width="210" height="37" as="geometry">
            <mxRectangle width="210" height="37" as="alternateBounds" />
          </mxGeometry>
        </mxCell>
        <mxCell id="851XCtTzTF1RA4zuGcTZ-26" value="" style="shape=partialRectangle;html=1;whiteSpace=wrap;connectable=0;fillColor=none;top=0;left=0;bottom=0;right=0;overflow=hidden;" vertex="1" parent="851XCtTzTF1RA4zuGcTZ-23">
          <mxGeometry x="260" width="260" height="37" as="geometry">
            <mxRectangle width="260" height="37" as="alternateBounds" />
          </mxGeometry>
        </mxCell>
        <mxCell id="851XCtTzTF1RA4zuGcTZ-31" value="" style="shape=tableRow;horizontal=0;startSize=0;swimlaneHead=0;swimlaneBody=0;top=0;left=0;bottom=0;right=0;collapsible=0;dropTarget=0;fillColor=none;points=[[0,0.5],[1,0.5]];portConstraint=eastwest;" vertex="1" parent="851XCtTzTF1RA4zuGcTZ-2">
          <mxGeometry y="174" width="520" height="36" as="geometry" />
        </mxCell>
        <mxCell id="851XCtTzTF1RA4zuGcTZ-32" value="" style="shape=partialRectangle;html=1;whiteSpace=wrap;connectable=0;fillColor=none;top=0;left=0;bottom=0;right=0;overflow=hidden;" vertex="1" parent="851XCtTzTF1RA4zuGcTZ-31">
          <mxGeometry width="50" height="36" as="geometry">
            <mxRectangle width="50" height="36" as="alternateBounds" />
          </mxGeometry>
        </mxCell>
        <mxCell id="851XCtTzTF1RA4zuGcTZ-33" value="" style="shape=partialRectangle;html=1;whiteSpace=wrap;connectable=0;fillColor=none;top=0;left=0;bottom=0;right=0;overflow=hidden;" vertex="1" parent="851XCtTzTF1RA4zuGcTZ-31">
          <mxGeometry x="50" width="210" height="36" as="geometry">
            <mxRectangle width="210" height="36" as="alternateBounds" />
          </mxGeometry>
        </mxCell>
        <mxCell id="851XCtTzTF1RA4zuGcTZ-34" value="" style="shape=partialRectangle;html=1;whiteSpace=wrap;connectable=0;fillColor=none;top=0;left=0;bottom=0;right=0;overflow=hidden;" vertex="1" parent="851XCtTzTF1RA4zuGcTZ-31">
          <mxGeometry x="260" width="260" height="36" as="geometry">
            <mxRectangle width="260" height="36" as="alternateBounds" />
          </mxGeometry>
        </mxCell>
        <mxCell id="851XCtTzTF1RA4zuGcTZ-47" value="" style="shape=tableRow;horizontal=0;startSize=0;swimlaneHead=0;swimlaneBody=0;top=0;left=0;bottom=0;right=0;collapsible=0;dropTarget=0;fillColor=none;points=[[0,0.5],[1,0.5]];portConstraint=eastwest;" vertex="1" parent="851XCtTzTF1RA4zuGcTZ-2">
          <mxGeometry y="210" width="520" height="36" as="geometry" />
        </mxCell>
        <mxCell id="851XCtTzTF1RA4zuGcTZ-48" value="" style="shape=partialRectangle;html=1;whiteSpace=wrap;connectable=0;fillColor=none;top=0;left=0;bottom=0;right=0;overflow=hidden;" vertex="1" parent="851XCtTzTF1RA4zuGcTZ-47">
          <mxGeometry width="50" height="36" as="geometry">
            <mxRectangle width="50" height="36" as="alternateBounds" />
          </mxGeometry>
        </mxCell>
        <mxCell id="851XCtTzTF1RA4zuGcTZ-49" value="" style="shape=partialRectangle;html=1;whiteSpace=wrap;connectable=0;fillColor=none;top=0;left=0;bottom=0;right=0;overflow=hidden;" vertex="1" parent="851XCtTzTF1RA4zuGcTZ-47">
          <mxGeometry x="50" width="210" height="36" as="geometry">
            <mxRectangle width="210" height="36" as="alternateBounds" />
          </mxGeometry>
        </mxCell>
        <mxCell id="851XCtTzTF1RA4zuGcTZ-50" value="" style="shape=partialRectangle;html=1;whiteSpace=wrap;connectable=0;fillColor=none;top=0;left=0;bottom=0;right=0;overflow=hidden;" vertex="1" parent="851XCtTzTF1RA4zuGcTZ-47">
          <mxGeometry x="260" width="260" height="36" as="geometry">
            <mxRectangle width="260" height="36" as="alternateBounds" />
          </mxGeometry>
        </mxCell>
        <mxCell id="851XCtTzTF1RA4zuGcTZ-51" value="" style="shape=tableRow;horizontal=0;startSize=0;swimlaneHead=0;swimlaneBody=0;top=0;left=0;bottom=0;right=0;collapsible=0;dropTarget=0;fillColor=none;points=[[0,0.5],[1,0.5]];portConstraint=eastwest;" vertex="1" parent="851XCtTzTF1RA4zuGcTZ-2">
          <mxGeometry y="246" width="520" height="37" as="geometry" />
        </mxCell>
        <mxCell id="851XCtTzTF1RA4zuGcTZ-52" value="" style="shape=partialRectangle;html=1;whiteSpace=wrap;connectable=0;fillColor=none;top=0;left=0;bottom=0;right=0;overflow=hidden;" vertex="1" parent="851XCtTzTF1RA4zuGcTZ-51">
          <mxGeometry width="50" height="37" as="geometry">
            <mxRectangle width="50" height="37" as="alternateBounds" />
          </mxGeometry>
        </mxCell>
        <mxCell id="851XCtTzTF1RA4zuGcTZ-53" value="" style="shape=partialRectangle;html=1;whiteSpace=wrap;connectable=0;fillColor=none;top=0;left=0;bottom=0;right=0;overflow=hidden;" vertex="1" parent="851XCtTzTF1RA4zuGcTZ-51">
          <mxGeometry x="50" width="210" height="37" as="geometry">
            <mxRectangle width="210" height="37" as="alternateBounds" />
          </mxGeometry>
        </mxCell>
        <mxCell id="851XCtTzTF1RA4zuGcTZ-54" value="" style="shape=partialRectangle;html=1;whiteSpace=wrap;connectable=0;fillColor=none;top=0;left=0;bottom=0;right=0;overflow=hidden;" vertex="1" parent="851XCtTzTF1RA4zuGcTZ-51">
          <mxGeometry x="260" width="260" height="37" as="geometry">
            <mxRectangle width="260" height="37" as="alternateBounds" />
          </mxGeometry>
        </mxCell>
        <mxCell id="851XCtTzTF1RA4zuGcTZ-55" value="" style="shape=tableRow;horizontal=0;startSize=0;swimlaneHead=0;swimlaneBody=0;top=0;left=0;bottom=0;right=0;collapsible=0;dropTarget=0;fillColor=none;points=[[0,0.5],[1,0.5]];portConstraint=eastwest;" vertex="1" parent="851XCtTzTF1RA4zuGcTZ-2">
          <mxGeometry y="283" width="520" height="35" as="geometry" />
        </mxCell>
        <mxCell id="851XCtTzTF1RA4zuGcTZ-56" value="" style="shape=partialRectangle;html=1;whiteSpace=wrap;connectable=0;fillColor=none;top=0;left=0;bottom=0;right=0;overflow=hidden;" vertex="1" parent="851XCtTzTF1RA4zuGcTZ-55">
          <mxGeometry width="50" height="35" as="geometry">
            <mxRectangle width="50" height="35" as="alternateBounds" />
          </mxGeometry>
        </mxCell>
        <mxCell id="851XCtTzTF1RA4zuGcTZ-57" value="" style="shape=partialRectangle;html=1;whiteSpace=wrap;connectable=0;fillColor=none;top=0;left=0;bottom=0;right=0;overflow=hidden;" vertex="1" parent="851XCtTzTF1RA4zuGcTZ-55">
          <mxGeometry x="50" width="210" height="35" as="geometry">
            <mxRectangle width="210" height="35" as="alternateBounds" />
          </mxGeometry>
        </mxCell>
        <mxCell id="851XCtTzTF1RA4zuGcTZ-58" value="" style="shape=partialRectangle;html=1;whiteSpace=wrap;connectable=0;fillColor=none;top=0;left=0;bottom=0;right=0;overflow=hidden;" vertex="1" parent="851XCtTzTF1RA4zuGcTZ-55">
          <mxGeometry x="260" width="260" height="35" as="geometry">
            <mxRectangle width="260" height="35" as="alternateBounds" />
          </mxGeometry>
        </mxCell>
        <mxCell id="851XCtTzTF1RA4zuGcTZ-59" value="" style="shape=tableRow;horizontal=0;startSize=0;swimlaneHead=0;swimlaneBody=0;top=0;left=0;bottom=0;right=0;collapsible=0;dropTarget=0;fillColor=none;points=[[0,0.5],[1,0.5]];portConstraint=eastwest;" vertex="1" parent="851XCtTzTF1RA4zuGcTZ-2">
          <mxGeometry y="318" width="520" height="36" as="geometry" />
        </mxCell>
        <mxCell id="851XCtTzTF1RA4zuGcTZ-60" value="" style="shape=partialRectangle;html=1;whiteSpace=wrap;connectable=0;fillColor=none;top=0;left=0;bottom=0;right=0;overflow=hidden;" vertex="1" parent="851XCtTzTF1RA4zuGcTZ-59">
          <mxGeometry width="50" height="36" as="geometry">
            <mxRectangle width="50" height="36" as="alternateBounds" />
          </mxGeometry>
        </mxCell>
        <mxCell id="851XCtTzTF1RA4zuGcTZ-61" value="" style="shape=partialRectangle;html=1;whiteSpace=wrap;connectable=0;fillColor=none;top=0;left=0;bottom=0;right=0;overflow=hidden;" vertex="1" parent="851XCtTzTF1RA4zuGcTZ-59">
          <mxGeometry x="50" width="210" height="36" as="geometry">
            <mxRectangle width="210" height="36" as="alternateBounds" />
          </mxGeometry>
        </mxCell>
        <mxCell id="851XCtTzTF1RA4zuGcTZ-62" value="" style="shape=partialRectangle;html=1;whiteSpace=wrap;connectable=0;fillColor=none;top=0;left=0;bottom=0;right=0;overflow=hidden;" vertex="1" parent="851XCtTzTF1RA4zuGcTZ-59">
          <mxGeometry x="260" width="260" height="36" as="geometry">
            <mxRectangle width="260" height="36" as="alternateBounds" />
          </mxGeometry>
        </mxCell>
        <mxCell id="851XCtTzTF1RA4zuGcTZ-63" value="" style="shape=tableRow;horizontal=0;startSize=0;swimlaneHead=0;swimlaneBody=0;top=0;left=0;bottom=0;right=0;collapsible=0;dropTarget=0;fillColor=none;points=[[0,0.5],[1,0.5]];portConstraint=eastwest;" vertex="1" parent="851XCtTzTF1RA4zuGcTZ-2">
          <mxGeometry y="354" width="520" height="36" as="geometry" />
        </mxCell>
        <mxCell id="851XCtTzTF1RA4zuGcTZ-64" value="" style="shape=partialRectangle;html=1;whiteSpace=wrap;connectable=0;fillColor=none;top=0;left=0;bottom=0;right=0;overflow=hidden;" vertex="1" parent="851XCtTzTF1RA4zuGcTZ-63">
          <mxGeometry width="50" height="36" as="geometry">
            <mxRectangle width="50" height="36" as="alternateBounds" />
          </mxGeometry>
        </mxCell>
        <mxCell id="851XCtTzTF1RA4zuGcTZ-65" value="" style="shape=partialRectangle;html=1;whiteSpace=wrap;connectable=0;fillColor=none;top=0;left=0;bottom=0;right=0;overflow=hidden;" vertex="1" parent="851XCtTzTF1RA4zuGcTZ-63">
          <mxGeometry x="50" width="210" height="36" as="geometry">
            <mxRectangle width="210" height="36" as="alternateBounds" />
          </mxGeometry>
        </mxCell>
        <mxCell id="851XCtTzTF1RA4zuGcTZ-66" value="" style="shape=partialRectangle;html=1;whiteSpace=wrap;connectable=0;fillColor=none;top=0;left=0;bottom=0;right=0;overflow=hidden;" vertex="1" parent="851XCtTzTF1RA4zuGcTZ-63">
          <mxGeometry x="260" width="260" height="36" as="geometry">
            <mxRectangle width="260" height="36" as="alternateBounds" />
          </mxGeometry>
        </mxCell>
        <mxCell id="851XCtTzTF1RA4zuGcTZ-43" value="" style="shape=tableRow;horizontal=0;startSize=0;swimlaneHead=0;swimlaneBody=0;top=0;left=0;bottom=0;right=0;collapsible=0;dropTarget=0;fillColor=none;points=[[0,0.5],[1,0.5]];portConstraint=eastwest;" vertex="1" parent="851XCtTzTF1RA4zuGcTZ-2">
          <mxGeometry y="390" width="520" height="36" as="geometry" />
        </mxCell>
        <mxCell id="851XCtTzTF1RA4zuGcTZ-44" value="" style="shape=partialRectangle;html=1;whiteSpace=wrap;connectable=0;fillColor=none;top=0;left=0;bottom=0;right=0;overflow=hidden;" vertex="1" parent="851XCtTzTF1RA4zuGcTZ-43">
          <mxGeometry width="50" height="36" as="geometry">
            <mxRectangle width="50" height="36" as="alternateBounds" />
          </mxGeometry>
        </mxCell>
        <mxCell id="851XCtTzTF1RA4zuGcTZ-45" value="" style="shape=partialRectangle;html=1;whiteSpace=wrap;connectable=0;fillColor=none;top=0;left=0;bottom=0;right=0;overflow=hidden;" vertex="1" parent="851XCtTzTF1RA4zuGcTZ-43">
          <mxGeometry x="50" width="210" height="36" as="geometry">
            <mxRectangle width="210" height="36" as="alternateBounds" />
          </mxGeometry>
        </mxCell>
        <mxCell id="851XCtTzTF1RA4zuGcTZ-46" value="" style="shape=partialRectangle;html=1;whiteSpace=wrap;connectable=0;fillColor=none;top=0;left=0;bottom=0;right=0;overflow=hidden;" vertex="1" parent="851XCtTzTF1RA4zuGcTZ-43">
          <mxGeometry x="260" width="260" height="36" as="geometry">
            <mxRectangle width="260" height="36" as="alternateBounds" />
          </mxGeometry>
        </mxCell>
        <mxCell id="851XCtTzTF1RA4zuGcTZ-39" value="" style="shape=tableRow;horizontal=0;startSize=0;swimlaneHead=0;swimlaneBody=0;top=0;left=0;bottom=0;right=0;collapsible=0;dropTarget=0;fillColor=none;points=[[0,0.5],[1,0.5]];portConstraint=eastwest;" vertex="1" parent="851XCtTzTF1RA4zuGcTZ-2">
          <mxGeometry y="426" width="520" height="38" as="geometry" />
        </mxCell>
        <mxCell id="851XCtTzTF1RA4zuGcTZ-40" value="" style="shape=partialRectangle;html=1;whiteSpace=wrap;connectable=0;fillColor=none;top=0;left=0;bottom=0;right=0;overflow=hidden;" vertex="1" parent="851XCtTzTF1RA4zuGcTZ-39">
          <mxGeometry width="50" height="38" as="geometry">
            <mxRectangle width="50" height="38" as="alternateBounds" />
          </mxGeometry>
        </mxCell>
        <mxCell id="851XCtTzTF1RA4zuGcTZ-41" value="" style="shape=partialRectangle;html=1;whiteSpace=wrap;connectable=0;fillColor=none;top=0;left=0;bottom=0;right=0;overflow=hidden;" vertex="1" parent="851XCtTzTF1RA4zuGcTZ-39">
          <mxGeometry x="50" width="210" height="38" as="geometry">
            <mxRectangle width="210" height="38" as="alternateBounds" />
          </mxGeometry>
        </mxCell>
        <mxCell id="851XCtTzTF1RA4zuGcTZ-42" value="" style="shape=partialRectangle;html=1;whiteSpace=wrap;connectable=0;fillColor=none;top=0;left=0;bottom=0;right=0;overflow=hidden;" vertex="1" parent="851XCtTzTF1RA4zuGcTZ-39">
          <mxGeometry x="260" width="260" height="38" as="geometry">
            <mxRectangle width="260" height="38" as="alternateBounds" />
          </mxGeometry>
        </mxCell>
        <mxCell id="851XCtTzTF1RA4zuGcTZ-35" value="" style="shape=tableRow;horizontal=0;startSize=0;swimlaneHead=0;swimlaneBody=0;top=0;left=0;bottom=0;right=0;collapsible=0;dropTarget=0;fillColor=none;points=[[0,0.5],[1,0.5]];portConstraint=eastwest;" vertex="1" parent="851XCtTzTF1RA4zuGcTZ-2">
          <mxGeometry y="464" width="520" height="36" as="geometry" />
        </mxCell>
        <mxCell id="851XCtTzTF1RA4zuGcTZ-36" value="" style="shape=partialRectangle;html=1;whiteSpace=wrap;connectable=0;fillColor=none;top=0;left=0;bottom=0;right=0;overflow=hidden;" vertex="1" parent="851XCtTzTF1RA4zuGcTZ-35">
          <mxGeometry width="50" height="36" as="geometry">
            <mxRectangle width="50" height="36" as="alternateBounds" />
          </mxGeometry>
        </mxCell>
        <mxCell id="851XCtTzTF1RA4zuGcTZ-37" value="" style="shape=partialRectangle;html=1;whiteSpace=wrap;connectable=0;fillColor=none;top=0;left=0;bottom=0;right=0;overflow=hidden;" vertex="1" parent="851XCtTzTF1RA4zuGcTZ-35">
          <mxGeometry x="50" width="210" height="36" as="geometry">
            <mxRectangle width="210" height="36" as="alternateBounds" />
          </mxGeometry>
        </mxCell>
        <mxCell id="851XCtTzTF1RA4zuGcTZ-38" value="" style="shape=partialRectangle;html=1;whiteSpace=wrap;connectable=0;fillColor=none;top=0;left=0;bottom=0;right=0;overflow=hidden;" vertex="1" parent="851XCtTzTF1RA4zuGcTZ-35">
          <mxGeometry x="260" width="260" height="36" as="geometry">
            <mxRectangle width="260" height="36" as="alternateBounds" />
          </mxGeometry>
        </mxCell>
        <mxCell id="851XCtTzTF1RA4zuGcTZ-27" value="" style="shape=tableRow;horizontal=0;startSize=0;swimlaneHead=0;swimlaneBody=0;top=0;left=0;bottom=0;right=0;collapsible=0;dropTarget=0;fillColor=none;points=[[0,0.5],[1,0.5]];portConstraint=eastwest;" vertex="1" parent="851XCtTzTF1RA4zuGcTZ-2">
          <mxGeometry y="500" width="520" height="36" as="geometry" />
        </mxCell>
        <mxCell id="851XCtTzTF1RA4zuGcTZ-28" value="" style="shape=partialRectangle;html=1;whiteSpace=wrap;connectable=0;fillColor=none;top=0;left=0;bottom=0;right=0;overflow=hidden;" vertex="1" parent="851XCtTzTF1RA4zuGcTZ-27">
          <mxGeometry width="50" height="36" as="geometry">
            <mxRectangle width="50" height="36" as="alternateBounds" />
          </mxGeometry>
        </mxCell>
        <mxCell id="851XCtTzTF1RA4zuGcTZ-29" value="" style="shape=partialRectangle;html=1;whiteSpace=wrap;connectable=0;fillColor=none;top=0;left=0;bottom=0;right=0;overflow=hidden;" vertex="1" parent="851XCtTzTF1RA4zuGcTZ-27">
          <mxGeometry x="50" width="210" height="36" as="geometry">
            <mxRectangle width="210" height="36" as="alternateBounds" />
          </mxGeometry>
        </mxCell>
        <mxCell id="851XCtTzTF1RA4zuGcTZ-30" value="" style="shape=partialRectangle;html=1;whiteSpace=wrap;connectable=0;fillColor=none;top=0;left=0;bottom=0;right=0;overflow=hidden;" vertex="1" parent="851XCtTzTF1RA4zuGcTZ-27">
          <mxGeometry x="260" width="260" height="36" as="geometry">
            <mxRectangle width="260" height="36" as="alternateBounds" />
          </mxGeometry>
        </mxCell>
        <mxCell id="851XCtTzTF1RA4zuGcTZ-15" value="" style="shape=tableRow;horizontal=0;startSize=0;swimlaneHead=0;swimlaneBody=0;top=0;left=0;bottom=0;right=0;collapsible=0;dropTarget=0;fillColor=none;points=[[0,0.5],[1,0.5]];portConstraint=eastwest;" vertex="1" parent="851XCtTzTF1RA4zuGcTZ-2">
          <mxGeometry y="536" width="520" height="38" as="geometry" />
        </mxCell>
        <mxCell id="851XCtTzTF1RA4zuGcTZ-16" value="" style="shape=partialRectangle;html=1;whiteSpace=wrap;connectable=0;fillColor=none;top=0;left=0;bottom=0;right=0;overflow=hidden;" vertex="1" parent="851XCtTzTF1RA4zuGcTZ-15">
          <mxGeometry width="50" height="38" as="geometry">
            <mxRectangle width="50" height="38" as="alternateBounds" />
          </mxGeometry>
        </mxCell>
        <mxCell id="851XCtTzTF1RA4zuGcTZ-17" value="" style="shape=partialRectangle;html=1;whiteSpace=wrap;connectable=0;fillColor=none;top=0;left=0;bottom=0;right=0;overflow=hidden;" vertex="1" parent="851XCtTzTF1RA4zuGcTZ-15">
          <mxGeometry x="50" width="210" height="38" as="geometry">
            <mxRectangle width="210" height="38" as="alternateBounds" />
          </mxGeometry>
        </mxCell>
        <mxCell id="851XCtTzTF1RA4zuGcTZ-18" value="" style="shape=partialRectangle;html=1;whiteSpace=wrap;connectable=0;fillColor=none;top=0;left=0;bottom=0;right=0;overflow=hidden;" vertex="1" parent="851XCtTzTF1RA4zuGcTZ-15">
          <mxGeometry x="260" width="260" height="38" as="geometry">
            <mxRectangle width="260" height="38" as="alternateBounds" />
          </mxGeometry>
        </mxCell>
        <mxCell id="851XCtTzTF1RA4zuGcTZ-11" value="" style="shape=tableRow;horizontal=0;startSize=0;swimlaneHead=0;swimlaneBody=0;top=0;left=0;bottom=0;right=0;collapsible=0;dropTarget=0;fillColor=none;points=[[0,0.5],[1,0.5]];portConstraint=eastwest;" vertex="1" parent="851XCtTzTF1RA4zuGcTZ-2">
          <mxGeometry y="574" width="520" height="36" as="geometry" />
        </mxCell>
        <mxCell id="851XCtTzTF1RA4zuGcTZ-12" value="" style="shape=partialRectangle;html=1;whiteSpace=wrap;connectable=0;fillColor=none;top=0;left=0;bottom=0;right=0;overflow=hidden;" vertex="1" parent="851XCtTzTF1RA4zuGcTZ-11">
          <mxGeometry width="50" height="36" as="geometry">
            <mxRectangle width="50" height="36" as="alternateBounds" />
          </mxGeometry>
        </mxCell>
        <mxCell id="851XCtTzTF1RA4zuGcTZ-13" value="" style="shape=partialRectangle;html=1;whiteSpace=wrap;connectable=0;fillColor=none;top=0;left=0;bottom=0;right=0;overflow=hidden;" vertex="1" parent="851XCtTzTF1RA4zuGcTZ-11">
          <mxGeometry x="50" width="210" height="36" as="geometry">
            <mxRectangle width="210" height="36" as="alternateBounds" />
          </mxGeometry>
        </mxCell>
        <mxCell id="851XCtTzTF1RA4zuGcTZ-14" value="" style="shape=partialRectangle;html=1;whiteSpace=wrap;connectable=0;fillColor=none;top=0;left=0;bottom=0;right=0;overflow=hidden;" vertex="1" parent="851XCtTzTF1RA4zuGcTZ-11">
          <mxGeometry x="260" width="260" height="36" as="geometry">
            <mxRectangle width="260" height="36" as="alternateBounds" />
          </mxGeometry>
        </mxCell>
      </root>
    </mxGraphModel>
  </diagram>
  <diagram id="P4sy47xCK-957V2CWeSL" name="User Class">
    <mxGraphModel dx="2074" dy="1156" grid="1" gridSize="10" guides="1" tooltips="1" connect="1" arrows="1" fold="1" page="1" pageScale="1" pageWidth="827" pageHeight="1169" math="0" shadow="0">
      <root>
        <mxCell id="0" />
        <mxCell id="1" parent="0" />
        <mxCell id="Yme7kzhMDGELeHrnPjqv-1" value="User" style="swimlane;fontStyle=1;align=center;verticalAlign=top;childLayout=stackLayout;horizontal=1;startSize=26;horizontalStack=0;resizeParent=1;resizeLast=0;collapsible=1;marginBottom=0;rounded=0;shadow=0;strokeWidth=1;" vertex="1" parent="1">
          <mxGeometry x="220" y="120" width="320" height="1370" as="geometry">
            <mxRectangle x="230" y="140" width="160" height="26" as="alternateBounds" />
          </mxGeometry>
        </mxCell>
        <mxCell id="Yme7kzhMDGELeHrnPjqv-2" value="id&#xa;" style="text;align=left;verticalAlign=top;spacingLeft=4;spacingRight=4;overflow=hidden;rotatable=0;points=[[0,0.5],[1,0.5]];portConstraint=eastwest;" vertex="1" parent="Yme7kzhMDGELeHrnPjqv-1">
          <mxGeometry y="26" width="320" height="26" as="geometry" />
        </mxCell>
        <mxCell id="Yme7kzhMDGELeHrnPjqv-3" value="isNew" style="text;align=left;verticalAlign=top;spacingLeft=4;spacingRight=4;overflow=hidden;rotatable=0;points=[[0,0.5],[1,0.5]];portConstraint=eastwest;rounded=0;shadow=0;html=0;" vertex="1" parent="Yme7kzhMDGELeHrnPjqv-1">
          <mxGeometry y="52" width="320" height="26" as="geometry" />
        </mxCell>
        <mxCell id="Yme7kzhMDGELeHrnPjqv-4" value="userName" style="text;align=left;verticalAlign=top;spacingLeft=4;spacingRight=4;overflow=hidden;rotatable=0;points=[[0,0.5],[1,0.5]];portConstraint=eastwest;rounded=0;shadow=0;html=0;" vertex="1" parent="Yme7kzhMDGELeHrnPjqv-1">
          <mxGeometry y="78" width="320" height="26" as="geometry" />
        </mxCell>
        <mxCell id="Yme7kzhMDGELeHrnPjqv-5" value="phoneNo" style="text;align=left;verticalAlign=top;spacingLeft=4;spacingRight=4;overflow=hidden;rotatable=0;points=[[0,0.5],[1,0.5]];portConstraint=eastwest;" vertex="1" parent="Yme7kzhMDGELeHrnPjqv-1">
          <mxGeometry y="104" width="320" height="26" as="geometry" />
        </mxCell>
        <mxCell id="Yme7kzhMDGELeHrnPjqv-6" value="email" style="text;align=left;verticalAlign=top;spacingLeft=4;spacingRight=4;overflow=hidden;rotatable=0;points=[[0,0.5],[1,0.5]];portConstraint=eastwest;rounded=0;shadow=0;html=0;" vertex="1" parent="Yme7kzhMDGELeHrnPjqv-1">
          <mxGeometry y="130" width="320" height="26" as="geometry" />
        </mxCell>
        <mxCell id="Yme7kzhMDGELeHrnPjqv-7" value="recommendCode" style="text;align=left;verticalAlign=top;spacingLeft=4;spacingRight=4;overflow=hidden;rotatable=0;points=[[0,0.5],[1,0.5]];portConstraint=eastwest;rounded=0;shadow=0;html=0;" vertex="1" parent="Yme7kzhMDGELeHrnPjqv-1">
          <mxGeometry y="156" width="320" height="26" as="geometry" />
        </mxCell>
        <mxCell id="Yme7kzhMDGELeHrnPjqv-8" value="connectState" style="text;align=left;verticalAlign=top;spacingLeft=4;spacingRight=4;overflow=hidden;rotatable=0;points=[[0,0.5],[1,0.5]];portConstraint=eastwest;rounded=0;shadow=0;html=0;" vertex="1" parent="Yme7kzhMDGELeHrnPjqv-1">
          <mxGeometry y="182" width="320" height="26" as="geometry" />
        </mxCell>
        <mxCell id="Yme7kzhMDGELeHrnPjqv-9" value="createdAt" style="text;align=left;verticalAlign=top;spacingLeft=4;spacingRight=4;overflow=hidden;rotatable=0;points=[[0,0.5],[1,0.5]];portConstraint=eastwest;rounded=0;shadow=0;html=0;" vertex="1" parent="Yme7kzhMDGELeHrnPjqv-1">
          <mxGeometry y="208" width="320" height="26" as="geometry" />
        </mxCell>
        <mxCell id="Yme7kzhMDGELeHrnPjqv-10" value="lastLogin" style="text;align=left;verticalAlign=top;spacingLeft=4;spacingRight=4;overflow=hidden;rotatable=0;points=[[0,0.5],[1,0.5]];portConstraint=eastwest;rounded=0;shadow=0;html=0;" vertex="1" parent="Yme7kzhMDGELeHrnPjqv-1">
          <mxGeometry y="234" width="320" height="26" as="geometry" />
        </mxCell>
        <mxCell id="Yme7kzhMDGELeHrnPjqv-11" value="lastTrade" style="text;align=left;verticalAlign=top;spacingLeft=4;spacingRight=4;overflow=hidden;rotatable=0;points=[[0,0.5],[1,0.5]];portConstraint=eastwest;rounded=0;shadow=0;html=0;" vertex="1" parent="Yme7kzhMDGELeHrnPjqv-1">
          <mxGeometry y="260" width="320" height="26" as="geometry" />
        </mxCell>
        <mxCell id="Yme7kzhMDGELeHrnPjqv-12" value="authority" style="text;align=left;verticalAlign=top;spacingLeft=4;spacingRight=4;overflow=hidden;rotatable=0;points=[[0,0.5],[1,0.5]];portConstraint=eastwest;rounded=0;shadow=0;html=0;" vertex="1" parent="Yme7kzhMDGELeHrnPjqv-1">
          <mxGeometry y="286" width="320" height="26" as="geometry" />
        </mxCell>
        <mxCell id="Yme7kzhMDGELeHrnPjqv-13" value="userState" style="text;align=left;verticalAlign=top;spacingLeft=4;spacingRight=4;overflow=hidden;rotatable=0;points=[[0,0.5],[1,0.5]];portConstraint=eastwest;rounded=0;shadow=0;html=0;" vertex="1" parent="Yme7kzhMDGELeHrnPjqv-1">
          <mxGeometry y="312" width="320" height="28" as="geometry" />
        </mxCell>
        <mxCell id="Yme7kzhMDGELeHrnPjqv-14" value="userBalance" style="text;align=left;verticalAlign=top;spacingLeft=4;spacingRight=4;overflow=hidden;rotatable=0;points=[[0,0.5],[1,0.5]];portConstraint=eastwest;rounded=0;shadow=0;html=0;" vertex="1" parent="Yme7kzhMDGELeHrnPjqv-1">
          <mxGeometry y="340" width="320" height="26" as="geometry" />
        </mxCell>
        <mxCell id="Yme7kzhMDGELeHrnPjqv-15" value="userAccountBank" style="text;align=left;verticalAlign=top;spacingLeft=4;spacingRight=4;overflow=hidden;rotatable=0;points=[[0,0.5],[1,0.5]];portConstraint=eastwest;rounded=0;shadow=0;html=0;" vertex="1" parent="Yme7kzhMDGELeHrnPjqv-1">
          <mxGeometry y="366" width="320" height="26" as="geometry" />
        </mxCell>
        <mxCell id="Yme7kzhMDGELeHrnPjqv-16" value="userAccountNo" style="text;align=left;verticalAlign=top;spacingLeft=4;spacingRight=4;overflow=hidden;rotatable=0;points=[[0,0.5],[1,0.5]];portConstraint=eastwest;rounded=0;shadow=0;html=0;" vertex="1" parent="Yme7kzhMDGELeHrnPjqv-1">
          <mxGeometry y="392" width="320" height="26" as="geometry" />
        </mxCell>
        <mxCell id="Yme7kzhMDGELeHrnPjqv-17" value="isOverDomestic" style="text;align=left;verticalAlign=top;spacingLeft=4;spacingRight=4;overflow=hidden;rotatable=0;points=[[0,0.5],[1,0.5]];portConstraint=eastwest;rounded=0;shadow=0;html=0;" vertex="1" parent="Yme7kzhMDGELeHrnPjqv-1">
          <mxGeometry y="418" width="320" height="26" as="geometry" />
        </mxCell>
        <mxCell id="Yme7kzhMDGELeHrnPjqv-18" value="updatedData_overDomestic" style="text;align=left;verticalAlign=top;spacingLeft=4;spacingRight=4;overflow=hidden;rotatable=0;points=[[0,0.5],[1,0.5]];portConstraint=eastwest;rounded=0;shadow=0;html=0;" vertex="1" parent="Yme7kzhMDGELeHrnPjqv-1">
          <mxGeometry y="444" width="320" height="26" as="geometry" />
        </mxCell>
        <mxCell id="Yme7kzhMDGELeHrnPjqv-19" value="isOverOption" style="text;align=left;verticalAlign=top;spacingLeft=4;spacingRight=4;overflow=hidden;rotatable=0;points=[[0,0.5],[1,0.5]];portConstraint=eastwest;rounded=0;shadow=0;html=0;" vertex="1" parent="Yme7kzhMDGELeHrnPjqv-1">
          <mxGeometry y="470" width="320" height="26" as="geometry" />
        </mxCell>
        <mxCell id="Yme7kzhMDGELeHrnPjqv-20" value="updatedData_overOption" style="text;align=left;verticalAlign=top;spacingLeft=4;spacingRight=4;overflow=hidden;rotatable=0;points=[[0,0.5],[1,0.5]];portConstraint=eastwest;rounded=0;shadow=0;html=0;" vertex="1" parent="Yme7kzhMDGELeHrnPjqv-1">
          <mxGeometry y="496" width="320" height="26" as="geometry" />
        </mxCell>
        <mxCell id="Yme7kzhMDGELeHrnPjqv-21" value="isOverForeign" style="text;align=left;verticalAlign=top;spacingLeft=4;spacingRight=4;overflow=hidden;rotatable=0;points=[[0,0.5],[1,0.5]];portConstraint=eastwest;rounded=0;shadow=0;html=0;" vertex="1" parent="Yme7kzhMDGELeHrnPjqv-1">
          <mxGeometry y="522" width="320" height="26" as="geometry" />
        </mxCell>
        <mxCell id="Yme7kzhMDGELeHrnPjqv-22" value="updatedData_overForeign" style="text;align=left;verticalAlign=top;spacingLeft=4;spacingRight=4;overflow=hidden;rotatable=0;points=[[0,0.5],[1,0.5]];portConstraint=eastwest;rounded=0;shadow=0;html=0;" vertex="1" parent="Yme7kzhMDGELeHrnPjqv-1">
          <mxGeometry y="548" width="320" height="26" as="geometry" />
        </mxCell>
        <mxCell id="Yme7kzhMDGELeHrnPjqv-23" value="isOverHangSeng" style="text;align=left;verticalAlign=top;spacingLeft=4;spacingRight=4;overflow=hidden;rotatable=0;points=[[0,0.5],[1,0.5]];portConstraint=eastwest;rounded=0;shadow=0;html=0;" vertex="1" parent="Yme7kzhMDGELeHrnPjqv-1">
          <mxGeometry y="574" width="320" height="26" as="geometry" />
        </mxCell>
        <mxCell id="Yme7kzhMDGELeHrnPjqv-24" value="connectIP" style="text;align=left;verticalAlign=top;spacingLeft=4;spacingRight=4;overflow=hidden;rotatable=0;points=[[0,0.5],[1,0.5]];portConstraint=eastwest;rounded=0;shadow=0;html=0;" vertex="1" parent="Yme7kzhMDGELeHrnPjqv-1">
          <mxGeometry y="600" width="320" height="26" as="geometry" />
        </mxCell>
        <mxCell id="Yme7kzhMDGELeHrnPjqv-25" value="domestic_fee" style="text;align=left;verticalAlign=top;spacingLeft=4;spacingRight=4;overflow=hidden;rotatable=0;points=[[0,0.5],[1,0.5]];portConstraint=eastwest;rounded=0;shadow=0;html=0;" vertex="1" parent="Yme7kzhMDGELeHrnPjqv-1">
          <mxGeometry y="626" width="320" height="26" as="geometry" />
        </mxCell>
        <mxCell id="Yme7kzhMDGELeHrnPjqv-26" value="option_fee" style="text;align=left;verticalAlign=top;spacingLeft=4;spacingRight=4;overflow=hidden;rotatable=0;points=[[0,0.5],[1,0.5]];portConstraint=eastwest;rounded=0;shadow=0;html=0;" vertex="1" parent="Yme7kzhMDGELeHrnPjqv-1">
          <mxGeometry y="652" width="320" height="26" as="geometry" />
        </mxCell>
        <mxCell id="Yme7kzhMDGELeHrnPjqv-27" value="hangseng_fee" style="text;align=left;verticalAlign=top;spacingLeft=4;spacingRight=4;overflow=hidden;rotatable=0;points=[[0,0.5],[1,0.5]];portConstraint=eastwest;rounded=0;shadow=0;html=0;" vertex="1" parent="Yme7kzhMDGELeHrnPjqv-1">
          <mxGeometry y="678" width="320" height="26" as="geometry" />
        </mxCell>
        <mxCell id="Yme7kzhMDGELeHrnPjqv-28" value="mini_foreign_fee" style="text;align=left;verticalAlign=top;spacingLeft=4;spacingRight=4;overflow=hidden;rotatable=0;points=[[0,0.5],[1,0.5]];portConstraint=eastwest;rounded=0;shadow=0;html=0;" vertex="1" parent="Yme7kzhMDGELeHrnPjqv-1">
          <mxGeometry y="704" width="320" height="26" as="geometry" />
        </mxCell>
        <mxCell id="Yme7kzhMDGELeHrnPjqv-29" value="mini_hangseng_fee" style="text;align=left;verticalAlign=top;spacingLeft=4;spacingRight=4;overflow=hidden;rotatable=0;points=[[0,0.5],[1,0.5]];portConstraint=eastwest;rounded=0;shadow=0;html=0;" vertex="1" parent="Yme7kzhMDGELeHrnPjqv-1">
          <mxGeometry y="730" width="320" height="26" as="geometry" />
        </mxCell>
        <mxCell id="Yme7kzhMDGELeHrnPjqv-30" value="domestic_maxAvailableCount" style="text;align=left;verticalAlign=top;spacingLeft=4;spacingRight=4;overflow=hidden;rotatable=0;points=[[0,0.5],[1,0.5]];portConstraint=eastwest;rounded=0;shadow=0;html=0;" vertex="1" parent="Yme7kzhMDGELeHrnPjqv-1">
          <mxGeometry y="756" width="320" height="26" as="geometry" />
        </mxCell>
        <mxCell id="Yme7kzhMDGELeHrnPjqv-31" value="option_maxAvailableCount" style="text;align=left;verticalAlign=top;spacingLeft=4;spacingRight=4;overflow=hidden;rotatable=0;points=[[0,0.5],[1,0.5]];portConstraint=eastwest;rounded=0;shadow=0;html=0;" vertex="1" parent="Yme7kzhMDGELeHrnPjqv-1">
          <mxGeometry y="782" width="320" height="26" as="geometry" />
        </mxCell>
        <mxCell id="Yme7kzhMDGELeHrnPjqv-32" value="foreign_maxAvailableCount" style="text;align=left;verticalAlign=top;spacingLeft=4;spacingRight=4;overflow=hidden;rotatable=0;points=[[0,0.5],[1,0.5]];portConstraint=eastwest;rounded=0;shadow=0;html=0;" vertex="1" parent="Yme7kzhMDGELeHrnPjqv-1">
          <mxGeometry y="808" width="320" height="26" as="geometry" />
        </mxCell>
        <mxCell id="Yme7kzhMDGELeHrnPjqv-33" value="hangseng_maxAvailableCount" style="text;align=left;verticalAlign=top;spacingLeft=4;spacingRight=4;overflow=hidden;rotatable=0;points=[[0,0.5],[1,0.5]];portConstraint=eastwest;rounded=0;shadow=0;html=0;" vertex="1" parent="Yme7kzhMDGELeHrnPjqv-1">
          <mxGeometry y="834" width="320" height="26" as="geometry" />
        </mxCell>
        <mxCell id="Yme7kzhMDGELeHrnPjqv-34" value="mini_foreign_maxAvailableCount" style="text;align=left;verticalAlign=top;spacingLeft=4;spacingRight=4;overflow=hidden;rotatable=0;points=[[0,0.5],[1,0.5]];portConstraint=eastwest;rounded=0;shadow=0;html=0;" vertex="1" parent="Yme7kzhMDGELeHrnPjqv-1">
          <mxGeometry y="860" width="320" height="26" as="geometry" />
        </mxCell>
        <mxCell id="Yme7kzhMDGELeHrnPjqv-35" value="mini_hangseng_maxAvailableCount" style="text;align=left;verticalAlign=top;spacingLeft=4;spacingRight=4;overflow=hidden;rotatable=0;points=[[0,0.5],[1,0.5]];portConstraint=eastwest;rounded=0;shadow=0;html=0;" vertex="1" parent="Yme7kzhMDGELeHrnPjqv-1">
          <mxGeometry y="886" width="320" height="26" as="geometry" />
        </mxCell>
        <mxCell id="Yme7kzhMDGELeHrnPjqv-36" value="returnType" style="text;align=left;verticalAlign=top;spacingLeft=4;spacingRight=4;overflow=hidden;rotatable=0;points=[[0,0.5],[1,0.5]];portConstraint=eastwest;rounded=0;shadow=0;html=0;" vertex="1" parent="Yme7kzhMDGELeHrnPjqv-1">
          <mxGeometry y="912" width="320" height="26" as="geometry" />
        </mxCell>
        <mxCell id="Yme7kzhMDGELeHrnPjqv-37" value="returnValue" style="text;align=left;verticalAlign=top;spacingLeft=4;spacingRight=4;overflow=hidden;rotatable=0;points=[[0,0.5],[1,0.5]];portConstraint=eastwest;rounded=0;shadow=0;html=0;" vertex="1" parent="Yme7kzhMDGELeHrnPjqv-1">
          <mxGeometry y="938" width="320" height="26" as="geometry" />
        </mxCell>
        <mxCell id="Yme7kzhMDGELeHrnPjqv-38" value="connectMAC" style="text;align=left;verticalAlign=top;spacingLeft=4;spacingRight=4;overflow=hidden;rotatable=0;points=[[0,0.5],[1,0.5]];portConstraint=eastwest;rounded=0;shadow=0;html=0;" vertex="1" parent="Yme7kzhMDGELeHrnPjqv-1">
          <mxGeometry y="964" width="320" height="26" as="geometry" />
        </mxCell>
        <mxCell id="Yme7kzhMDGELeHrnPjqv-39" value="updatedData_overHangseng" style="text;align=left;verticalAlign=top;spacingLeft=4;spacingRight=4;overflow=hidden;rotatable=0;points=[[0,0.5],[1,0.5]];portConstraint=eastwest;rounded=0;shadow=0;html=0;" vertex="1" parent="Yme7kzhMDGELeHrnPjqv-1">
          <mxGeometry y="990" width="320" height="26" as="geometry" />
        </mxCell>
        <mxCell id="Yme7kzhMDGELeHrnPjqv-40" value="isOverMiniForeign" style="text;align=left;verticalAlign=top;spacingLeft=4;spacingRight=4;overflow=hidden;rotatable=0;points=[[0,0.5],[1,0.5]];portConstraint=eastwest;rounded=0;shadow=0;html=0;" vertex="1" parent="Yme7kzhMDGELeHrnPjqv-1">
          <mxGeometry y="1016" width="320" height="26" as="geometry" />
        </mxCell>
        <mxCell id="Yme7kzhMDGELeHrnPjqv-41" value="updatedData_miniForeign" style="text;align=left;verticalAlign=top;spacingLeft=4;spacingRight=4;overflow=hidden;rotatable=0;points=[[0,0.5],[1,0.5]];portConstraint=eastwest;rounded=0;shadow=0;html=0;" vertex="1" parent="Yme7kzhMDGELeHrnPjqv-1">
          <mxGeometry y="1042" width="320" height="26" as="geometry" />
        </mxCell>
        <mxCell id="Yme7kzhMDGELeHrnPjqv-42" value="isOverMiniHangseng" style="text;align=left;verticalAlign=top;spacingLeft=4;spacingRight=4;overflow=hidden;rotatable=0;points=[[0,0.5],[1,0.5]];portConstraint=eastwest;rounded=0;shadow=0;html=0;" vertex="1" parent="Yme7kzhMDGELeHrnPjqv-1">
          <mxGeometry y="1068" width="320" height="26" as="geometry" />
        </mxCell>
        <mxCell id="Yme7kzhMDGELeHrnPjqv-43" value="updatedData_miniHangseng" style="text;align=left;verticalAlign=top;spacingLeft=4;spacingRight=4;overflow=hidden;rotatable=0;points=[[0,0.5],[1,0.5]];portConstraint=eastwest;rounded=0;shadow=0;html=0;" vertex="1" parent="Yme7kzhMDGELeHrnPjqv-1">
          <mxGeometry y="1094" width="320" height="26" as="geometry" />
        </mxCell>
        <mxCell id="Yme7kzhMDGELeHrnPjqv-44" value="memo" style="text;align=left;verticalAlign=top;spacingLeft=4;spacingRight=4;overflow=hidden;rotatable=0;points=[[0,0.5],[1,0.5]];portConstraint=eastwest;rounded=0;shadow=0;html=0;" vertex="1" parent="Yme7kzhMDGELeHrnPjqv-1">
          <mxGeometry y="1120" width="320" height="26" as="geometry" />
        </mxCell>
        <mxCell id="Yme7kzhMDGELeHrnPjqv-45" value="deposit_accountId" style="text;align=left;verticalAlign=top;spacingLeft=4;spacingRight=4;overflow=hidden;rotatable=0;points=[[0,0.5],[1,0.5]];portConstraint=eastwest;rounded=0;shadow=0;html=0;" vertex="1" parent="Yme7kzhMDGELeHrnPjqv-1">
          <mxGeometry y="1146" width="320" height="26" as="geometry" />
        </mxCell>
        <mxCell id="Yme7kzhMDGELeHrnPjqv-46" value="connect_serverId" style="text;align=left;verticalAlign=top;spacingLeft=4;spacingRight=4;overflow=hidden;rotatable=0;points=[[0,0.5],[1,0.5]];portConstraint=eastwest;rounded=0;shadow=0;html=0;" vertex="1" parent="Yme7kzhMDGELeHrnPjqv-1">
          <mxGeometry y="1172" width="320" height="26" as="geometry" />
        </mxCell>
        <mxCell id="Yme7kzhMDGELeHrnPjqv-47" value="position" style="text;align=left;verticalAlign=top;spacingLeft=4;spacingRight=4;overflow=hidden;rotatable=0;points=[[0,0.5],[1,0.5]];portConstraint=eastwest;rounded=0;shadow=0;html=0;" vertex="1" parent="Yme7kzhMDGELeHrnPjqv-1">
          <mxGeometry y="1198" width="320" height="26" as="geometry" />
        </mxCell>
        <mxCell id="Yme7kzhMDGELeHrnPjqv-48" value="request_banking" style="text;align=left;verticalAlign=top;spacingLeft=4;spacingRight=4;overflow=hidden;rotatable=0;points=[[0,0.5],[1,0.5]];portConstraint=eastwest;rounded=0;shadow=0;html=0;" vertex="1" parent="Yme7kzhMDGELeHrnPjqv-1">
          <mxGeometry y="1224" width="320" height="26" as="geometry" />
        </mxCell>
        <mxCell id="Yme7kzhMDGELeHrnPjqv-49" value="total_log" style="text;align=left;verticalAlign=top;spacingLeft=4;spacingRight=4;overflow=hidden;rotatable=0;points=[[0,0.5],[1,0.5]];portConstraint=eastwest;rounded=0;shadow=0;html=0;" vertex="1" parent="Yme7kzhMDGELeHrnPjqv-1">
          <mxGeometry y="1250" width="320" height="26" as="geometry" />
        </mxCell>
        <mxCell id="Yme7kzhMDGELeHrnPjqv-50" value="user_balance_history" style="text;align=left;verticalAlign=top;spacingLeft=4;spacingRight=4;overflow=hidden;rotatable=0;points=[[0,0.5],[1,0.5]];portConstraint=eastwest;rounded=0;shadow=0;html=0;" vertex="1" parent="Yme7kzhMDGELeHrnPjqv-1">
          <mxGeometry y="1276" width="320" height="26" as="geometry" />
        </mxCell>
        <mxCell id="Yme7kzhMDGELeHrnPjqv-51" value="" style="line;html=1;strokeWidth=1;align=left;verticalAlign=middle;spacingTop=-1;spacingLeft=3;spacingRight=3;rotatable=0;labelPosition=right;points=[];portConstraint=eastwest;" vertex="1" parent="Yme7kzhMDGELeHrnPjqv-1">
          <mxGeometry y="1302" width="320" height="8" as="geometry" />
        </mxCell>
        <mxCell id="Yme7kzhMDGELeHrnPjqv-52" value="method" style="text;align=left;verticalAlign=top;spacingLeft=4;spacingRight=4;overflow=hidden;rotatable=0;points=[[0,0.5],[1,0.5]];portConstraint=eastwest;rounded=0;shadow=0;html=0;" vertex="1" parent="Yme7kzhMDGELeHrnPjqv-1">
          <mxGeometry y="1310" width="320" height="26" as="geometry" />
        </mxCell>
        <mxCell id="Yme7kzhMDGELeHrnPjqv-53" value="user_balance_history" style="text;align=left;verticalAlign=top;spacingLeft=4;spacingRight=4;overflow=hidden;rotatable=0;points=[[0,0.5],[1,0.5]];portConstraint=eastwest;rounded=0;shadow=0;html=0;" vertex="1" parent="Yme7kzhMDGELeHrnPjqv-1">
          <mxGeometry y="1336" width="320" height="26" as="geometry" />
        </mxCell>
      </root>
    </mxGraphModel>
  </diagram>
</mxfile>
